<svg xmlns="http://www.w3.org/2000/svg" fill="none" viewBox="0 0 1708 400"><title>Lucid CMS</title><path fill="#739847" d="M187.213 149.404c28.049 0 50.787 22.738 50.787 50.787s-22.738 50.788-50.787 50.788h-3.074V149.404z"/><path fill="url(#a)" d="M117.901 199.909s-22.396-23.538-25.71-26.19-11.426-12.205-34.799-13.222-35.058 5.358-46.225 17.024C0 189.186 0 199.909 0 199.909z"/><path fill="url(#b)" d="M117.901 199.909s-22.396 23.536-25.71 26.189-11.426 12.204-34.799 13.221c-23.372 1.018-35.058-5.357-46.225-17.023C0 210.631 0 199.909 0 199.909z"/><path fill="url(#c)" d="M103.273 7.782c57.202 21.384 65.582 94.596 65.582 94.596v89.888s-8.38-.822-14.938-3.258c-6.559-2.435-13.846-9.791-13.846-9.791L31.132 71.569S19.838 59.981 18.38 52.002c-1.457-7.979-3.279-14.87 1.093-26.102 4.373-11.23 26.598-39.502 83.8-18.118"/><path fill="url(#d)" d="M103.273 392.058c57.202-21.384 65.582-94.596 65.582-94.596v-89.888s-8.38.822-14.938 3.258c-6.559 2.435-13.845 9.791-13.845 9.791L31.132 328.271s-11.294 11.588-12.752 19.567c-1.457 7.979-3.279 14.87 1.093 26.102 4.373 11.231 26.598 39.502 83.8 18.118"/><path fill="#fff" d="M1545.19 363.372h-125.78V36.315h124.5q50.445 0 87.15 19.642c24.59 12.989 43.53 31.726 56.83 56.213 13.41 24.38 20.11 53.605 20.11 87.673q0 51.102-19.95 87.833c-13.3 24.38-32.14 43.118-56.51 56.213-24.36 12.988-53.15 19.483-86.35 19.483m-37.03-75.377H1542q24.255 0 41.34-7.825c11.49-5.217 20.22-14.213 26.18-26.989q9.09-19.163 9.09-53.338c0-22.783-3.08-40.563-9.25-53.338q-9.105-19.164-26.82-26.989c-11.7-5.217-26.07-7.825-43.09-7.825h-31.29zM1377.36 36.315v327.057h-88.75V36.315zM1248.34 158.958h-90.03c-.63-7.453-2.34-14.213-5.1-20.282-2.66-6.068-6.39-11.285-11.18-15.65-4.68-4.471-10.37-7.878-17.08-10.22-6.7-2.449-14.31-3.673-22.82-3.673q-22.35 0-37.83 10.859c-10.21 7.239-17.98 17.62-23.3 31.141-5.22 13.521-7.82 29.756-7.82 48.707q0 30.022 7.98 50.304 8.13 20.122 23.46 30.342 15.33 10.06 36.87 10.061c8.19 0 15.54-1.011 22.03-3.034q9.735-3.194 16.92-9.103c4.79-3.939 8.67-8.677 11.65-14.213 3.09-5.642 5.16-11.977 6.22-19.004l90.03.639c-1.07 13.841-4.95 27.947-11.65 42.32-6.71 14.266-16.23 27.467-28.58 39.604-12.23 12.031-27.4 21.719-45.49 29.065s-39.1 11.019-63.04 11.019c-30.01 0-56.93-6.441-80.77-19.323q-35.594-19.323-56.345-56.852-20.59-37.528-20.59-91.825 0-54.616 21.069-91.985 21.07-37.528 56.826-56.692c23.83-12.882 50.44-19.323 79.81-19.323 20.64 0 39.63 2.821 56.98 8.464 17.34 5.642 32.56 13.893 45.65 24.753 13.09 10.752 23.62 24.007 31.6 39.764 7.98 15.756 12.83 33.802 14.53 54.137M812.226 36.304h88.746v209.521q0 37.368-17.876 64.676-17.718 27.149-49.481 42-31.764 14.692-73.743 14.692-42.298 0-74.062-14.692-31.764-14.851-49.481-42-17.558-27.308-17.558-64.676V36.304h88.747v201.855q0 15.171 6.704 27.149 6.704 11.817 18.515 18.524 11.971 6.707 27.135 6.707 15.322 0 27.135-6.707 11.811-6.707 18.515-18.524 6.704-11.978 6.704-27.149zM362 363.361V36.304h88.746v255.513h132.162v71.544z"/><defs><radialGradient id="a" cx="0" cy="0" r="1" gradientTransform="matrix(169.845 0 0 302.973 14.392 199.599)" gradientUnits="userSpaceOnUse"><stop stop-color="#c1fe77"/><stop offset="1" stop-color="#739847"/></radialGradient><radialGradient id="b" cx="0" cy="0" r="1" gradientTransform="matrix(169.845 0 0 302.973 14.392 199.599)" gradientUnits="userSpaceOnUse"><stop stop-color="#c1fe77"/><stop offset="1" stop-color="#739847"/></radialGradient><radialGradient id="c" cx="0" cy="0" r="1" gradientTransform="matrix(169.845 0 0 302.973 14.392 199.599)" gradientUnits="userSpaceOnUse"><stop stop-color="#c1fe77"/><stop offset="1" stop-color="#739847"/></radialGradient><radialGradient id="d" cx="0" cy="0" r="1" gradientTransform="matrix(169.845 0 0 302.973 14.392 199.599)" gradientUnits="userSpaceOnUse"><stop stop-color="#c1fe77"/><stop offset="1" stop-color="#739847"/></radialGradient></defs></svg>
